<?xml version="1.0" encoding="utf-8"?>
<!-- Generator: Adobe Illustrator 23.0.1, SVG Export Plug-In . SVG Version: 6.00 Build 0)  -->
<svg version="1.1" id="Capa_1" xmlns="http://www.w3.org/2000/svg" xmlns:xlink="http://www.w3.org/1999/xlink" x="0px" y="0px"
	 viewBox="0 0 232 347" style="enable-background:new 0 0 232 347;" xml:space="preserve">
<style type="text/css">
	.st0{fill:#942074;}
	.st1{enable-background:new    ;}
	.st2{fill:#F1ECDF;}
</style>
<g>
	<path class="st0" d="M175,69.8L82.3,6.3c-5.1-3.5-11.7-4-17.2-1.2s-9.2,8.2-9.5,14.4l-6,117.1c-0.3,6.2,2.7,12,7.9,15.3
		c1.8,1.1,3.7,1.9,5.7,2.3c3.9,0.8,8,0.2,11.6-1.7L173.5,99c5.2-2.8,8.6-8.2,8.9-14.1C182.7,78.8,179.9,73.2,175,69.8z"/>
	<g>
		<g class="st1">
			<path class="st2" d="M67.4,121.2V43.9h25c9.5,0,15.7,0.4,18.6,1.2c4.4,1.2,8.1,3.7,11.1,7.6c3,3.9,4.5,8.9,4.5,15.1
				c0,4.7-0.9,8.7-2.6,12c-1.7,3.2-3.9,5.8-6.6,7.6c-2.7,1.8-5.4,3.1-8.1,3.7c-3.7,0.7-9.1,1.1-16.2,1.1H83v29.2H67.4z M83,57V79
				h8.5c6.2,0,10.3-0.4,12.3-1.2c2.1-0.8,3.7-2.1,4.9-3.8c1.2-1.7,1.8-3.7,1.8-6c0-2.8-0.8-5.1-2.5-7c-1.7-1.8-3.7-3-6.3-3.4
				c-1.9-0.4-5.6-0.5-11.2-0.5H83z"/>
		</g>
		<g class="st1">
			<path class="st2" d="M148,87.7l6.8,1.1c-0.9,2.5-2.3,4.4-4.2,5.7c-1.9,1.3-4.3,2-7.1,2c-4.5,0-7.8-1.5-10-4.4
				c-1.7-2.4-2.6-5.3-2.6-8.9c0-4.3,1.1-7.7,3.4-10.1c2.2-2.4,5.1-3.6,8.5-3.6c3.9,0,6.9,1.3,9.1,3.8c2.2,2.5,3.3,6.4,3.2,11.7H138
				c0,2,0.6,3.6,1.7,4.7c1.1,1.1,2.4,1.7,4,1.7c1.1,0,2-0.3,2.7-0.9S147.6,89,148,87.7z M148.4,80.8c0-2-0.6-3.5-1.5-4.5
				c-1-1-2.2-1.6-3.6-1.6c-1.5,0-2.7,0.5-3.7,1.6c-1,1.1-1.5,2.6-1.4,4.4H148.4z"/>
		</g>
	</g>
</g>
</svg>
