<?xml version="1.0" encoding="utf-8"?>
<!-- Generator: Adobe Illustrator 23.0.1, SVG Export Plug-In . SVG Version: 6.00 Build 0)  -->
<svg version="1.1" id="Capa_1" xmlns="http://www.w3.org/2000/svg" xmlns:xlink="http://www.w3.org/1999/xlink" x="0px" y="0px"
	 viewBox="0 0 232 347" style="enable-background:new 0 0 232 347;" xml:space="preserve">
<style type="text/css">
	.st0{fill:#00928E;}
	.st1{fill:#FFE7DF;stroke:#FFFFFF;stroke-width:5;stroke-miterlimit:10;}
</style>
<g>
	<path class="st0" d="M175,69.8L82.3,6.3c-5.1-3.5-11.7-4-17.2-1.2s-9.2,8.2-9.5,14.4l-6,117.1c-0.3,6.2,2.7,12,7.9,15.3
		c1.8,1.1,3.7,1.9,5.7,2.3c3.9,0.8,8,0.2,11.6-1.7L173.5,99c5.2-2.8,8.6-8.2,8.9-14.1C182.7,78.8,179.9,73.2,175,69.8z"/>
</g>
<g>
	<g>
		<path class="st1" d="M135.8,70.4c2.5-1.7,4.1-4.6,4.1-7.9c0-5.3-4.3-9.7-9.7-9.7c-5.3,0-9.7,4.3-9.7,9.7c0,3.3,1.6,6.2,4.1,7.9
			c-2.1,0.7-4.1,1.9-5.7,3.3c-2.3-1.9-4.9-3.4-7.8-4.3c3.5-2.1,5.9-6,5.9-10.5c0-6.8-5.5-12.2-12.2-12.2S92.6,52.2,92.6,59
			c0,4.4,2.4,8.3,5.9,10.5c-2.9,0.9-5.5,2.3-7.8,4.2c-1.6-1.4-3.6-2.6-5.6-3.3c2.5-1.7,4.1-4.6,4.1-7.9c0-5.3-4.3-9.7-9.7-9.7
			s-9.7,4.3-9.7,9.7c0,3.3,1.6,6.2,4.1,7.9c-6.6,2.3-11.4,8.6-11.4,16v1.1c0,0,0,0.1,0.1,0.1h20.5c-0.1,0.9-0.2,1.9-0.2,2.8v1.1
			c0,4.9,4,8.9,8.9,8.9h26c4.9,0,8.9-4,8.9-8.9v-1.1c0-1-0.1-1.9-0.2-2.8h20.6c0,0,0.1,0,0.1-0.1v-1.1
			C147.2,79,142.4,72.7,135.8,70.4z M123.2,62.5c0-3.9,3.1-7,7-7c3.9,0,7,3.1,7,7c0,3.8-3.1,6.9-6.9,7c-0.1,0-0.1,0-0.1,0
			s-0.1,0-0.1,0C126.3,69.4,123.2,66.3,123.2,62.5z M95.2,59c0-5.3,4.3-9.6,9.6-9.6c5.3,0,9.6,4.3,9.6,9.6c0,5.1-4,9.3-9,9.5
			c-0.2,0-0.4,0-0.6,0c-0.2,0-0.4,0-0.6,0C99.2,68.2,95.2,64.1,95.2,59z M72.5,62.5c0-3.9,3.1-7,7-7s7,3.1,7,7c0,3.8-3.1,6.9-6.9,7
			c-0.1,0-0.1,0-0.1,0c-0.1,0-0.1,0-0.1,0C75.6,69.4,72.5,66.3,72.5,62.5z M83.6,84.9H65.3c0.8-7.1,6.8-12.7,14.1-12.8
			c0,0,0.1,0,0.1,0s0.1,0,0.1,0c3.5,0,6.7,1.3,9.1,3.4C86.3,78.1,84.5,81.4,83.6,84.9z M124,91.6c0,3.4-2.8,6.2-6.2,6.2h-26
			c-3.4,0-6.2-2.8-6.2-6.2v-1.1c0-10.4,8.3-18.9,18.6-19.2c0.2,0,0.4,0,0.6,0c0.2,0,0.4,0,0.6,0C115.7,71.5,124,80,124,90.4V91.6z
			 M126,84.9c-0.9-3.5-2.7-6.7-5.1-9.3c2.5-2.1,5.7-3.4,9.2-3.5c0,0,0.1,0,0.1,0s0.1,0,0.1,0c7.3,0.1,13.3,5.6,14.1,12.8H126z"/>
	</g>
</g>
</svg>
