<?xml version="1.0" encoding="utf-8"?>
<!-- Generator: Adobe Illustrator 23.0.1, SVG Export Plug-In . SVG Version: 6.00 Build 0)  -->
<svg version="1.1" id="Capa_1" xmlns="http://www.w3.org/2000/svg" xmlns:xlink="http://www.w3.org/1999/xlink" x="0px" y="0px"
	 viewBox="0 0 232 347" style="enable-background:new 0 0 232 347;" xml:space="preserve">
<style type="text/css">
	.st0{fill:#FBBB10;}
	.st1{enable-background:new    ;}
	.st2{fill:#F1ECDF;}
</style>
<g>
	<path class="st0" d="M175,69.8L82.3,6.3c-5.1-3.5-11.7-4-17.2-1.2s-9.2,8.2-9.5,14.4l-6,117.1c-0.3,6.2,2.7,12,7.9,15.3
		c1.8,1.1,3.7,1.9,5.7,2.3c3.9,0.8,8,0.2,11.6-1.7L173.5,99c5.2-2.8,8.6-8.2,8.9-14.1C182.7,78.8,179.9,73.2,175,69.8z"/>
	<g>
		<g class="st1">
			<path class="st2" d="M63.5,96.1l15.2-1.5c0.9,5.1,2.8,8.8,5.6,11.2c2.8,2.4,6.6,3.6,11.3,3.6c5,0,8.8-1.1,11.4-3.2
				c2.5-2.1,3.8-4.6,3.8-7.5c0-1.8-0.5-3.4-1.6-4.7c-1.1-1.3-2.9-2.4-5.6-3.3c-1.8-0.6-6-1.8-12.5-3.4c-8.4-2.1-14.2-4.6-17.6-7.6
				c-4.7-4.3-7.1-9.4-7.1-15.6c0-3.9,1.1-7.6,3.3-11c2.2-3.4,5.4-6,9.7-7.8c4.2-1.8,9.3-2.7,15.2-2.7c9.7,0,17,2.1,21.9,6.4
				c4.9,4.3,7.5,9.9,7.7,17l-15.6,0.7c-0.7-4-2.1-6.8-4.3-8.6c-2.2-1.7-5.5-2.6-9.9-2.6c-4.5,0-8.1,0.9-10.7,2.8
				c-1.7,1.2-2.5,2.8-2.5,4.8c0,1.8,0.8,3.4,2.3,4.7c2,1.7,6.8,3.4,14.3,5.2s13.2,3.6,16.8,5.6c3.6,1.9,6.5,4.5,8.5,7.9
				s3.1,7.4,3.1,12.3c0,4.4-1.2,8.6-3.7,12.4c-2.5,3.9-5.9,6.7-10.4,8.6c-4.5,1.9-10.1,2.8-16.8,2.8c-9.8,0-17.3-2.3-22.5-6.8
				C67.6,111.3,64.5,104.7,63.5,96.1z"/>
		</g>
		<g class="st1">
			<path class="st2" d="M148,87.7l6.8,1.1c-0.9,2.5-2.3,4.4-4.2,5.7c-1.9,1.3-4.3,2-7.1,2c-4.5,0-7.8-1.5-10-4.4
				c-1.7-2.4-2.6-5.3-2.6-8.9c0-4.3,1.1-7.7,3.4-10.1c2.2-2.4,5.1-3.7,8.5-3.7c3.9,0,6.9,1.3,9.1,3.8c2.2,2.5,3.3,6.5,3.2,11.7H138
				c0,2,0.6,3.6,1.7,4.7c1.1,1.1,2.4,1.7,4,1.7c1.1,0,2-0.3,2.7-0.9S147.6,89,148,87.7z M148.4,80.8c0-2-0.6-3.5-1.5-4.5
				c-1-1-2.2-1.5-3.6-1.5c-1.5,0-2.7,0.5-3.7,1.6c-1,1.1-1.5,2.6-1.4,4.4H148.4z"/>
		</g>
	</g>
</g>
</svg>
