<?xml version="1.0" encoding="UTF-8" standalone="no"?><!DOCTYPE svg PUBLIC "-//W3C//DTD SVG 1.1//EN" "http://www.w3.org/Graphics/SVG/1.1/DTD/svg11.dtd"><svg width="100%" height="100%" viewBox="0 0 151 176" version="1.1" xmlns="http://www.w3.org/2000/svg" xmlns:xlink="http://www.w3.org/1999/xlink" xml:space="preserve" xmlns:serif="http://www.serif.com/" style="fill-rule:evenodd;clip-rule:evenodd;stroke-linejoin:round;stroke-miterlimit:2;"><g><g><g><path d="M19.817,175.129c-3.332,0.059 -6.664,-0.76 -9.704,-2.513c-5.904,-3.391 -9.411,-9.411 -9.469,-16.192l-0.643,-137.543c-0.059,-6.781 3.449,-12.86 9.294,-16.309c5.845,-3.39 12.86,-3.449 18.764,-0.058l109.485,62.546c7.949,4.559 12.743,12.743 12.801,21.92c0.059,9.178 -4.676,17.42 -12.567,22.037l-108.901,63.482c-2.864,1.695 -5.962,2.513 -9.06,2.63Zm-1.228,-165.776c-1.578,0.058 -3.156,0.468 -4.559,1.286c-2.981,1.695 -4.735,4.793 -4.677,8.242l0.643,137.484c0,3.449 1.812,6.489 4.794,8.184c2.981,1.695 6.488,1.695 9.469,-0.058l108.901,-63.54c5.027,-2.923 8.008,-8.125 7.949,-13.971c0,-5.787 -3.039,-10.989 -8.125,-13.853l-109.485,-62.547c-1.578,-0.876 -3.215,-1.286 -4.91,-1.227Z" style="fill:#160b31;fill-rule:nonzero;"/><path d="M74.004,62.605l26.48,15.139c6.956,3.975 7.014,13.971 0.058,18.004l-26.304,15.374l-36.184,21.102c-2.513,1.461 -5.67,-0.351 -5.728,-3.274l-0.351,-83.823c0,-2.923 3.157,-4.735 5.67,-3.332l36.359,20.81Z" style="fill:#160b31;fill-rule:nonzero;"/></g></g></g></svg>