<?xml version="1.0" encoding="UTF-8" standalone="no"?>
<!DOCTYPE svg PUBLIC "-//W3C//DTD SVG 1.1//EN" "http://www.w3.org/Graphics/SVG/1.1/DTD/svg11.dtd">
<svg width="100%" height="100%" viewBox="0 0 196 227" version="1.1" xmlns="http://www.w3.org/2000/svg" xmlns:xlink="http://www.w3.org/1999/xlink" xml:space="preserve" xmlns:serif="http://www.serif.com/" style="fill-rule:evenodd;clip-rule:evenodd;stroke-linecap:round;stroke-linejoin:round;stroke-miterlimit:1.5;">
    <g transform="matrix(1,0,0,1,-149.841,-686.938)">
        <g transform="matrix(1,0,0,1,9.20886,-40.0661)">
            <path d="M177.155,736.731L329.576,831.986L327.437,852.532L316.717,864.762L169.459,944.966L155.721,941.049L143.491,931.511L148.71,745.108L157.902,734.039L177.155,736.731Z" style="fill:rgb(87,0,125);stroke:black;stroke-width:1px;"/>
        </g>
        <g transform="matrix(1,0,0,1,177.155,899.804)">
            <path d="M0,-200.832C-2.03,-200.832 -4.062,-200.316 -5.931,-199.28C-9.793,-197.137 -12.146,-193.221 -12.222,-188.805L-15.296,-11.281C-15.373,-6.864 -13.157,-2.869 -9.37,-0.594C-5.583,1.68 -1.017,1.76 2.847,-0.382L145.203,-79.318C151.763,-82.956 155.757,-89.605 155.887,-97.106C156.017,-104.606 152.255,-111.39 145.825,-115.252L6.287,-199.068C4.331,-200.242 2.167,-200.832 0,-200.832M-3.087,13.205C-7.387,13.205 -11.678,12.037 -15.557,9.706C-23.068,5.196 -27.462,-2.728 -27.31,-11.488L-24.236,-189.012C-24.085,-197.773 -19.419,-205.539 -11.757,-209.788C-4.095,-214.037 4.963,-213.879 12.474,-209.369L152.013,-125.553C162.167,-119.454 168.107,-108.742 167.902,-96.899C167.696,-85.054 161.389,-74.553 151.03,-68.809L8.674,10.126C4.97,12.181 0.937,13.205 -3.087,13.205" style="fill:rgb(255,173,0);fill-rule:nonzero;"/>
        </g>
        <g transform="matrix(1,0,0,1,247.184,830.167)">
            <path d="M0,-60.868L33.736,-40.604C42.598,-35.281 42.374,-22.361 33.334,-17.348L-1.084,1.736L-48.423,27.985C-51.721,29.814 -55.761,27.387 -55.696,23.617L-54.758,-30.505L-53.821,-84.626C-53.756,-88.396 -49.634,-90.682 -46.402,-88.74L0,-60.868Z" style="fill:rgb(0,148,142);fill-rule:nonzero;"/>
        </g>
    </g>
</svg>
