<svg width="154" height="154" viewBox="0 0 154 154" fill="none" xmlns="http://www.w3.org/2000/svg">
<circle cx="77" cy="77" r="77" fill="#7D009A" fill-opacity="0.75"/>
<path d="M59.5983 117.071C58.067 117.071 56.5356 116.665 55.1655 115.824C52.5058 114.197 50.9476 111.377 51.0013 108.231L52.1028 44.5572C52.1566 41.4115 53.8222 38.6183 56.5356 37.0997C59.2491 35.5811 62.4729 35.6353 65.1326 37.2624L114.726 67.3094C118.326 69.506 120.449 73.3297 120.368 77.5872C120.288 81.8448 118.058 85.5871 114.377 87.6481L63.7893 115.96C62.4729 116.692 61.0491 117.071 59.5983 117.071ZM60.6998 40.2996C59.9744 40.2996 59.2491 40.4895 58.6043 40.8691C57.2342 41.6284 56.4013 43.0386 56.3745 44.6386L55.273 108.312C55.2461 109.885 56.0252 111.322 57.3685 112.136C58.7118 112.949 60.3506 112.977 61.7207 112.217L112.309 83.9058C114.646 82.6041 116.07 80.2177 116.097 77.533C116.15 74.8483 114.807 72.4077 112.523 71.0246L62.9296 40.9505C62.258 40.5166 61.4789 40.2996 60.6998 40.2996Z" fill="#FFA700"/>
</svg>
