<svg width="35" height="35" viewBox="0 0 35 35" fill="none" xmlns="http://www.w3.org/2000/svg">
<path d="M6.17166 34.9416C5.50666 34.9416 4.84166 34.7666 4.24666 34.405C3.09166 33.705 2.415 32.4916 2.43833 31.1383L2.91666 3.74497C2.94 2.39164 3.66333 1.18997 4.84166 0.536641C6.02 -0.116692 7.42 -0.0933589 8.575 0.606641L30.1117 13.5333C31.675 14.4783 32.5967 16.1233 32.5617 17.955C32.5267 19.7866 31.5583 21.3966 29.96 22.2833L7.99166 34.4633C7.42 34.7783 6.80166 34.9416 6.17166 34.9416ZM6.65 1.91331C6.335 1.91331 6.02 1.99497 5.74 2.15831C5.145 2.48497 4.78333 3.09164 4.77166 3.77997L4.29333 31.1733C4.28166 31.85 4.62 32.4683 5.20333 32.8183C5.78666 33.1683 6.49833 33.18 7.09333 32.8533L29.0617 20.6733C30.0767 20.1133 30.695 19.0866 30.7067 17.9316C30.73 16.7766 30.1467 15.7266 29.155 15.1316L7.61833 2.19331C7.32666 2.00664 6.98833 1.91331 6.65 1.91331Z" fill="#F8F8F8"/>
<path d="M17.4533 12.7633L22.6566 15.89C24.0216 16.7066 23.9866 18.7016 22.5983 19.4833L17.29 22.4233L9.98662 26.4716C9.47328 26.7516 8.85495 26.3783 8.86662 25.795L9.00662 17.4416L9.15828 9.09997C9.16995 8.51664 9.79995 8.16664 10.3016 8.46997L17.4533 12.7633Z" fill="#F8F8F8"/>
</svg>
